<?xml version="1.0" standalone="no"?>
<!DOCTYPE svg PUBLIC "-//W3C//DTD SVG 20010904//EN"
 "http://www.w3.org/TR/2001/REC-SVG-20010904/DTD/svg10.dtd">
<svg version="1.0" xmlns="http://www.w3.org/2000/svg"
 width="1280.000000pt" height="1026.000000pt" viewBox="0 0 1280.000000 1026.000000"
 preserveAspectRatio="xMidYMid meet">
<metadata>
Created by potrace 1.15, written by Peter Selinger 2001-2017
</metadata>
<g transform="translate(0.000000,1026.000000) scale(0.100000,-0.100000)"
fill="#000000" stroke="none">
<path d="M8583 10235 c9 -46 15 -154 52 -970 56 -1213 94 -2032 100 -2135 3
-52 14 -293 26 -535 11 -242 23 -507 27 -589 l7 -149 993 1232 c546 677 995
1237 998 1245 3 8 -192 183 -513 462 -285 246 -552 478 -593 514 -96 85 -1060
920 -1084 940 -17 14 -18 13 -13 -15z"/>
<path d="M6020 7095 c0 -2020 0 -2069 19 -2050 28 30 1781 2222 1818 2275 l33
45 -38 36 c-20 20 -154 148 -297 285 -305 293 -1358 1305 -1462 1408 l-73 70
0 -2069z"/>
<path d="M10878 7898 c-68 -76 -1033 -1175 -1727 -1968 -156 -179 -294 -336
-307 -350 l-22 -25 33 -650 c19 -357 41 -789 50 -960 62 -1233 145 -2818 147
-2820 2 -1 179 53 393 120 474 149 2564 804 3015 945 179 56 328 104 331 106
4 2 -1 30 -11 61 -22 70 -334 1035 -430 1328 -38 116 -92 282 -120 370 -29 88
-79 243 -112 345 -33 102 -111 344 -174 538 -132 406 -291 900 -462 1427 -66
204 -197 606 -290 895 -94 289 -185 569 -202 623 -17 53 -33 97 -35 97 -2 0
-37 -37 -77 -82z"/>
<path d="M7874 6798 c-55 -62 -347 -387 -649 -723 -559 -623 -977 -1088 -1123
-1251 l-82 -92 0 -1791 c0 -985 2 -1791 5 -1791 8 0 962 153 1615 259 102 17
412 67 690 111 278 45 506 83 508 85 3 3 -62 409 -258 1620 -33 204 -91 564
-130 800 -38 237 -101 628 -141 870 -94 580 -149 927 -245 1522 -43 271 -81
493 -84 493 -3 0 -51 -51 -106 -112z"/>
<path d="M5490 5842 c-71 -57 -1474 -1203 -2935 -2397 -478 -391 -1156 -944
-1505 -1229 -737 -602 -644 -525 -639 -530 3 -2 1008 37 1444 58 66 3 408 17
760 32 352 14 643 29 647 33 4 3 274 485 601 1071 687 1232 1658 2972 1664
2983 7 13 -2 8 -37 -21z"/>
<path d="M5590 5179 c-187 -289 -956 -1470 -1867 -2867 -278 -426 -502 -776
-499 -779 4 -5 572 -59 2170 -208 208 -19 381 -34 383 -32 1 2 2 941 1 2087
l-3 2084 -185 -285z"/>
<path d="M1 1516 c2 -68 6 -127 9 -129 3 -3 124 -26 270 -52 1486 -260 2550
-552 3045 -834 264 -150 383 -283 393 -438 l4 -63 3263 0 3263 0 4 93 c6 111
29 181 93 277 129 194 437 385 935 580 l95 37 2 112 c1 65 -3 111 -8 111 -6 0
-121 -22 -257 -50 -764 -154 -1453 -234 -2412 -282 -327 -16 -1723 -16 -2220
0 -1307 44 -2228 112 -3330 248 -950 117 -1989 284 -2910 469 -124 25 -229 45
-234 45 -4 0 -6 -56 -5 -124z"/>
</g>
</svg>
